<?xml version="1.0" standalone="no"?>
<!DOCTYPE svg PUBLIC "-//W3C//DTD SVG 20010904//EN"
 "http://www.w3.org/TR/2001/REC-SVG-20010904/DTD/svg10.dtd">
<svg version="1.0" xmlns="http://www.w3.org/2000/svg"
 width="64.000000pt" height="64.000000pt" viewBox="0 0 64.000000 64.000000"
 preserveAspectRatio="xMidYMid meet">
<metadata>
Created by potrace 1.16, written by Peter Selinger 2001-2019
</metadata>
<g transform="translate(0.000000,64.000000) scale(0.100000,-0.100000)"
fill="green" stroke="none">
<path d="M160 475 l-155 -155 157 -157 157 -157 159 155 159 154 -156 158
c-86 86 -158 157 -161 157 -3 0 -75 -70 -160 -155z m225 45 l60 -60 -63 -63
-62 -62 -62 62 -63 63 60 60 c33 33 62 60 65 60 3 0 32 -27 65 -60z m-140
-140 l60 -60 -63 -63 -62 -62 -62 62 -63 63 60 60 c33 33 62 60 65 60 3 0 32
-27 65 -60z m280 0 l60 -60 -63 -63 -62 -62 -62 62 -63 63 60 60 c33 33 62 60
65 60 3 0 32 -27 65 -60z m-140 -140 l60 -60 -63 -63 -62 -62 -62 62 -63 63
60 60 c33 33 62 60 65 60 3 0 32 -27 65 -60z"/>
</g>
</svg>
